Patient4_TMGait_0pt5_02_left_03_EMG.mot
version=1
nRows=23
nColumns=33
inDegrees=no
endheader
time	1LAddLong	2LGlutMax	3LGlutMed	4LIliopsoas	5LSemiMemb	6LBicFemLong	7LRecFem	8LVastMed	9LVastLat	10LGasMed	11LTibAnt	12lTibPost	13LPeroneusLong	14LSol	15LExtDigLong	16LFlexDigLong	17RAddLong	18RGlutMax	19RGlutMed	20RIliopsoas	21RSemiMemb	22RBicFemLong	23RRecFem	24RVastMed	25RVastLat	26RGasMed	27RTibAnt	28RTibPost	29RPeroneusLong	30RSol	31RExtDigLong	32RFlexDigLong
4.518	0.00885	-0.19134	0.002441	0.009766	0.026398	-0.033875	-0.063324	-0.001678	0.005646	-0.031433	0.011292	0.005646	-0.008087	-0.05127	-0.003204	-0.006866	0.031433	-0.041046	-0.49423	-0.028076	0.069122	-0.098114	-0.0737	-0.06958	0.025177	0.004578	-0.020905	-0.001526	-0.94894	-0.014343	-0.000458	0.003052
4.519	0.016785	-0.19134	0.000305	0.006409	0.12665	-0.046539	-0.084076	0.005188	0.012512	-0.036926	0.014801	0.00473	-0.014496	-0.069733	-0.004272	-0.010071	-0.023041	-0.00885	0.91049	-0.041351	-0.1561	-0.03479	-0.15808	0.032501	0.14343	0.000763	0.014343	0.005341	-0.9288	0.084229	-0.002441	0.002289
4.52	0.011292	-0.1886	-0.019531	-0.003052	0.083313	-0.021515	-0.069427	0.005035	0.011902	-0.033569	0.008087	0.00473	-0.009003	-0.054474	0.007935	0.000305	-0.05661	0.006409	0.5307	-0.003204	0.016632	-0.086975	-0.041199	0.011902	0.11292	-0.014801	-0.022736	-0.003052	-0.058899	0.18036	-0.000916	-0.007019
4.521	0.00946	-0.17029	-0.04303	-0.008545	0.052795	0.026245	-0.065155	0.00473	0.015564	-0.028076	0.006866	0.001526	0.002747	-0.045624	-0.002441	0.003662	-0.035706	0.009918	-0.35339	-0.012665	0.23895	-0.010681	-0.06073	-0.022736	0.042725	-0.005493	0.001831	-0.044403	-0.13077	0.22415	-0.002441	0.00946
4.522	0.006714	-0.14908	-0.030823	0.015411	0.030975	0.036621	-0.065155	0.016022	-0.00946	-0.029602	0.016022	0.001678	-0.001221	-0.058136	0.003204	-0.003204	-0.031738	0.025787	0.35065	-0.047455	0.14328	0.31494	-0.069427	0.15762	0.026855	-0.007782	-0.021057	-0.16647	-0.40268	0.12756	-0.00412	0.00946
4.523	0.002899	-0.16647	-0.028534	0.011749	0.022736	0.030823	-0.055695	0.010529	0.002899	-0.028229	0.011902	0.002441	-0.006409	-0.065308	0.005646	0.005646	-0.026093	-0.019073	-0.26337	-0.10773	0.000916	0.46341	-0.040436	0.24887	0.06134	-0.020294	-0.042877	-0.00061	-0.14084	0.13092	-0.001678	0.002899
4.524	0.005493	-0.168	-0.034637	0.006866	-0.019531	0.019684	-0.066528	0.004272	0.00824	-0.026245	0.011444	-0.001984	-0.005035	-0.059052	-0.002899	-0.004578	0.013733	-0.052338	0.13184	-0.16235	0.047913	0.34912	0.051422	0.075378	0.055389	-0.042267	0.015259	0.11505	0.057831	0.010376	-0.002136	0.002289
4.525	0.009613	-0.18509	-0.070038	0.001068	-0.046387	-0.01236	-0.056	0.007019	0.013123	-0.026398	0.005951	0.008698	-0.006256	-0.040588	0.005493	0.002747	0.030365	-0.034637	0.20508	-0.063324	0.10742	0.1268	0.081787	-0.049133	0.037994	-0.088654	0.030518	-0.005798	-0.016174	-0.01236	-0.002441	-0.000916
4.526	0.012817	-0.16342	-0.079193	0.000916	-0.01236	-0.016937	-0.052185	0.006256	0.011444	-0.010071	0.007477	0.015411	-0.003357	-0.035095	-0.000305	-0.002289	0.024109	-0.016479	0.04837	0.045013	0.14755	-0.097809	0.11612	-0.11581	0.016632	-0.1268	0.047455	0.076141	-0.35751	-0.023041	-0.001678	-0.005341
4.527	0.000305	-0.15854	-0.07309	0.005951	0.023193	-0.067749	-0.072327	0.010071	0.001373	-0.02121	0.012512	0.00061	-0.008392	-0.036774	0.000916	0.007782	-0.001831	-0.034637	0.15533	0.11459	0.078583	-0.23911	0.1593	-0.11337	-0.035858	-0.16266	-0.015259	0.05188	-0.634	-0.14404	-0.002441	0.003967
4.528	0.007019	-0.11963	-0.057831	-0.003052	0.054321	-0.035706	-0.048065	0.008392	0.00824	-0.029755	0.005341	-0.012665	-0.019684	-0.030518	0.002594	-0.002594	-0.027161	-0.023956	0.24765	0.21652	-0.00351	-0.11353	0.20737	-0.15976	-0.058136	-0.168	-0.030365	-0.035095	0.06958	-0.12924	-0.002747	-0.005493
4.529	0.013275	-0.13886	-0.024719	0.003052	0.046082	-0.020294	-0.062408	0.011139	0.00412	-0.036774	0.013885	-0.015564	-0.022278	-0.04303	-0.005951	0.000763	-0.028534	-0.020142	0.24628	0.14755	-0.010986	0.063629	0.21927	-0.097046	-0.049286	0.004883	-0.050659	-0.14465	0.37903	-0.20584	-0.000458	0.003204
4.53	0.002136	-0.14725	-0.007324	-0.009613	0.034943	0.00473	-0.060272	0.007477	0.007324	-0.028992	0.003204	-0.002747	-0.019684	-0.049744	0.002136	-0.005035	-0.014954	-0.026398	-0.062408	0.062866	0.000153	0.15167	0.11917	0.003357	-0.079193	0.059814	-0.031128	-0.24368	0.011292	-0.29144	0	-0.009003
4.531	0.01236	-0.1384	-0.040283	0.011597	0.03006	0.02121	-0.056915	0.005188	0.018616	-0.034332	0.010529	0.009613	-0.002747	-0.062866	0.001068	0.002441	0.003815	-0.050812	-0.2327	0.028534	-0.086517	0.1561	-0.056915	-0.046844	-0.12024	-0.017548	0.000763	0.22064	-0.35675	-0.39597	-0.007324	-0.006104
4.532	0.005035	-0.13382	-0.036163	0.004425	0.024414	0.034027	-0.06012	0.001678	0.002441	-0.031586	0.00412	0.001526	-0.005188	-0.056305	0.001831	0.001526	-0.010529	-0.03891	-0.052032	0.01236	-0.23041	0.1207	-0.18845	-0.12558	-0.057983	0.045624	0.005341	0.087738	-0.21744	-0.11032	-0.004425	-0.010834
4.533	0.020447	-0.14023	-0.049286	-0.001373	0.016174	0.045929	-0.056915	0.01236	0.016632	-0.039063	0.009003	0.017548	-0.013275	-0.069275	-0.004272	0.004883	0.001678	-0.027008	0.21393	0.000458	0.015259	-0.006714	-0.12726	-0.072937	0.016785	-0.040894	0.025482	0.039368	-0.011749	0.51346	-0.005951	-0.003967
4.534	0.005341	-0.13382	-0.06897	0.000916	0.014496	0.046387	-0.059509	0.01358	0.003204	-0.02655	0.011292	-0.00351	-0.03006	-0.049438	0.000458	0.003052	0.002136	0.021515	0.37048	-0.03479	0.081787	0.007629	0.1564	0.16083	-0.046234	-0.077667	0.021515	-0.028839	0.20309	0.578	-0.003967	-0.00824
4.535	0.015869	-0.16785	-0.11154	-0.005188	0.007324	0.028992	-0.065918	0.010223	0.00946	-0.0177	0.007019	0.002136	-0.036774	-0.052643	0.005493	-0.005341	-0.023346	-0.00412	-0.10956	-0.044098	-0.17685	0.068817	0.054474	0.13168	-0.10971	0.093079	0.013428	-0.7869	-0.042114	0.17059	-0.002594	-0.003357
4.536	0.013733	-0.14481	-0.088196	0.003662	0.001526	0.018463	-0.052795	0.007324	0.011139	-0.02533	0.009766	-0.006104	-0.04425	-0.049286	0.003357	0.00885	0.009613	0.013885	-0.51865	-0.030212	-0.15869	0.020752	-0.11398	0.020752	0.053864	0.13382	-0.016022	0.095062	-0.076752	0.25635	-0.005951	0.002136
4.537	0.012512	-0.14893	-0.065918	0.001373	-0.004578	0.04364	-0.065918	0.014801	0.002747	-0.02655	0.009613	0.011749	-0.028534	-0.058594	0.005035	0.000305	0.024109	0.0177	-0.034637	-0.036011	-0.024567	-0.014954	-0.31021	0.006256	0.29495	0.091553	-0.048065	0.21057	0.29938	0.12634	-0.001984	0.001373
4.538	-0.000763	-0.10376	-0.054169	0.02594	-0.005341	0.04837	-0.060883	0.011597	0.016785	-0.030365	0.002747	0.010529	0.001373	-0.054779	0.003204	0.007324	0.026855	0.024261	0.37186	-0.033417	0.085297	-0.052795	-0.22293	0.159	0.30533	0.096436	0.025177	0.18814	-0.19226	-0.037842	-0.00351	-0.004425
4.539	0.004578	-0.10788	-0.040283	0.002899	-0.016327	0.045776	-0.063934	0.013885	0.018463	-0.022278	0.010529	0.010834	0.015869	-0.070038	0.002441	0.00946	0.017548	0.072327	0.32181	-0.033264	0.19333	-0.02121	-0.019073	0.14282	0.19073	0.085144	0.024719	0.006561	-0.34149	-0.17502	0.001526	-0.006104
4.54	-0.00885	-0.095673	-0.001221	-0.002594	-0.022888	0.037842	-0.07843	0.014648	0.016479	-0.018158	0.006409	0.004883	0.014343	-0.077209	0.001984	-0.011749	0.019989	0.1033	0.084534	-0.019379	0.065155	-0.0354	-0.031281	0.089264	0.14664	0.08316	-0.009003	0.027466	-0.29587	-0.26199	-0.003052	-0.005188
